<svg width="53" height="54" viewBox="0 0 53 54" fill="none" xmlns="http://www.w3.org/2000/svg">
<path d="M52.7977 9.89532C52.7977 14.0722 49.4115 17.4584 45.2346 17.4584C41.0578 17.4584 37.6718 14.0722 37.6718 9.89532C37.6718 5.71848 41.0578 2.33252 45.2346 2.33252C49.4115 2.33252 52.7977 5.71848 52.7977 9.89532Z" fill="#8B4FFC"/>
<path d="M2.84437 30.2021C2.84437 30.4245 2.84437 31.37 2.9001 31.5921C3.23373 43.9918 13.4646 54 25.9752 54C38.5413 54 48.7719 43.9918 49.1058 31.5921C49.1613 31.37 49.1613 31.0918 49.1613 30.8691V30.2021H40.0982C40.0982 30.647 40.0422 31.1475 39.9872 31.5921C39.2643 38.4312 34.1486 44.3254 27.254 44.8812C19.1361 45.604 12.2968 39.4879 11.9074 31.5921V30.2021H2.84437Z" fill="#8B4FFC"/>
<path d="M5.71263 20.9947L16.2411 10.466L5.77785 0L0.0654736 5.71213L7.29634 10.4971L1.33514e-05 15.2823L5.71263 20.9947Z" fill="#8B4FFC"/>
</svg>
