<svg width="404" height="414" viewBox="0 0 404 414" fill="none" xmlns="http://www.w3.org/2000/svg">
<path d="M0 75.6803C0 107.625 25.8982 133.524 57.8433 133.524C89.7885 133.524 115.685 107.625 115.685 75.6803C115.685 43.7352 89.7885 17.8389 57.8433 17.8389C25.8982 17.8389 0 43.7352 0 75.6803Z" fill="#8B4FFC"/>
<path d="M382.049 230.993C382.049 232.694 382.049 239.925 381.623 241.624C379.071 336.459 300.823 413.003 205.141 413.003C109.033 413.003 30.7879 336.459 28.2344 241.624C27.8101 239.925 27.8101 237.798 27.8101 236.095V230.993H97.1257C97.1257 234.395 97.5537 238.224 97.9744 241.624C103.504 293.931 142.629 339.01 195.36 343.261C257.447 348.789 309.755 302.012 312.733 241.624V230.993H382.049Z" fill="#8B4FFC"/>
<path d="M360.113 160.571L279.59 80.0453L359.615 0L403.304 43.6873L348.001 80.2835L403.804 116.882L360.113 160.571Z" fill="#8B4FFC"/>
</svg>
