<svg width="24" height="28" viewBox="0 0 24 28" fill="none" xmlns="http://www.w3.org/2000/svg">
<g clip-path="url(#clip0)">
<path d="M6.62793 15.9443L11.7279 27.6673L16.8279 15.9443H6.62793Z" fill="#8B4FFC"/>
<path d="M11.726 23.452C18.2021 23.452 23.452 18.2021 23.452 11.726C23.452 5.24991 18.2021 0 11.726 0C5.24991 0 0 5.24991 0 11.726C0 18.2021 5.24991 23.452 11.726 23.452Z" fill="#8B4FFC"/>
<path d="M11.725 16.991C14.6333 16.991 16.991 14.6333 16.991 11.725C16.991 8.81665 14.6333 6.45898 11.725 6.45898C8.81665 6.45898 6.45898 8.81665 6.45898 11.725C6.45898 14.6333 8.81665 16.991 11.725 16.991Z" fill="#132229"/>
</g>
<defs>
<clipPath id="clip0">
<rect width="23.451" height="27.668" fill="white"/>
</clipPath>
</defs>
</svg>
