<svg width="10" height="16" viewBox="0 0 10 16" fill="none" xmlns="http://www.w3.org/2000/svg">
<g clip-path="url(#clip0)">
<path d="M9.00902 7.9049C9.00933 8.05019 8.98086 8.1941 8.92525 8.32832C8.86964 8.46254 8.78798 8.58441 8.68501 8.6869L1.88502 15.4869C1.67656 15.6939 1.3944 15.8096 1.10062 15.8086C0.806848 15.8076 0.52552 15.6899 0.318519 15.4814C0.111517 15.2729 -0.00419843 14.9908 -0.00316699 14.697C-0.00213555 14.4032 0.115552 14.1219 0.324012 13.9149L6.33701 7.9049L0.324012 1.8919C0.125352 1.68258 0.0162943 1.40395 0.0200645 1.11539C0.0238347 0.826831 0.140138 0.551149 0.344199 0.347088C0.548261 0.143026 0.823941 0.0267191 1.1125 0.0229492C1.40106 0.0191793 1.67969 0.128244 1.88901 0.326904L8.68902 7.1269C8.89455 7.3336 9.00964 7.61342 9.00902 7.9049Z" fill="#8B4FFC"/>
</g>
<defs>
<clipPath id="clip0">
<rect width="9.009" height="15.805" fill="white"/>
</clipPath>
</defs>
</svg>
