<svg width="40" height="48" viewBox="0 0 40 48" fill="none" xmlns="http://www.w3.org/2000/svg">
<g clip-path="url(#clip0)">
<path d="M11.2871 27.1533L19.9681 47.1183L28.6491 27.1533H11.2871Z" fill="#28284B"/>
<path d="M19.969 39.938C30.9976 39.938 39.938 30.9976 39.938 19.969C39.938 8.94043 30.9976 0 19.969 0C8.94043 0 0 8.94043 0 19.969C0 30.9976 8.94043 39.938 19.969 39.938Z" fill="#28284B"/>
<path d="M19.969 28.938C24.9224 28.938 28.938 24.9224 28.938 19.969C28.938 15.0156 24.9224 11 19.969 11C15.0156 11 11 15.0156 11 19.969C11 24.9224 15.0156 28.938 19.969 28.938Z" fill="#8B4FFC"/>
</g>
<defs>
<clipPath id="clip0">
<rect width="39.937" height="47.118" fill="white"/>
</clipPath>
</defs>
</svg>
